<svg width="36px" height="36px" viewBox="0 0 36 36" version="1.1" xmlns="http://www.w3.org/2000/svg" xmlns:xlink="http://www.w3.org/1999/xlink">
    <g id="Page-1" stroke="none" stroke-width="1" fill="none" fill-rule="evenodd">
        <g id="Logo" fill="#A6CE39">
            <path d="M28.4501,18.3976 L28.8801,18.3976 C29.2291,18.3976 29.5151,18.6206 29.5151,18.8916 L29.5151,26.3616 C29.5151,26.6336 29.2291,26.8556 28.8801,26.8556 L28.4501,26.8556 C28.1011,26.8556 27.8161,26.6346 27.8161,26.3616 L27.8161,18.8916 C27.8161,18.6206 28.1011,18.3976 28.4501,18.3976 L28.4501,18.3976 Z M21.6841,18.3976 L21.2531,18.3976 C20.9041,18.3976 20.6181,18.6206 20.6181,18.8916 L20.6181,26.3616 C20.6181,26.6336 20.9041,26.8556 21.2531,26.8556 L21.6841,26.8556 C22.0321,26.8556 22.3171,26.6346 22.3171,26.3616 L22.3171,18.8916 C22.3171,18.6206 22.0331,18.3976 21.6841,18.3976 L21.6841,18.3976 Z M32.0481,16.7426 L32.4791,16.7426 C32.8281,16.7426 33.1141,16.9636 33.1141,17.2366 L33.1141,21.8426 C33.1141,22.1146 32.8281,22.3376 32.4791,22.3376 L32.0481,22.3376 C31.6991,22.3376 31.4151,22.1156 31.4151,21.8426 L31.4151,17.2366 C31.4151,16.9636 31.6991,16.7426 32.0481,16.7426 L32.0481,16.7426 Z M14.0551,17.3406 L14.4861,17.3406 C14.8351,17.3406 15.1201,17.1186 15.1201,16.8466 L15.1201,9.3766 C15.1201,9.1056 14.8351,8.8826 14.4861,8.8826 L14.0551,8.8826 C13.7061,8.8826 13.4211,9.1046 13.4211,9.3766 L13.4211,16.8456 C13.4211,17.1186 13.7061,17.3406 14.0551,17.3406 L14.0551,17.3406 Z M7.2891,17.3406 L6.8591,17.3406 C6.5091,17.3406 6.2241,17.1186 6.2241,16.8466 L6.2241,9.3766 C6.2241,9.1056 6.5091,8.8826 6.8591,8.8826 L7.2891,8.8826 C7.6371,8.8826 7.9231,9.1046 7.9231,9.3766 L7.9231,16.8456 C7.9231,17.1186 7.6381,17.3406 7.2891,17.3406 L7.2891,17.3406 Z M18.7191,17.2226 L18.7191,13.8956 C18.7191,13.6236 18.4331,13.4016 18.0841,13.4016 L17.6541,13.4016 C17.3051,13.4016 17.0201,13.6236 17.0201,13.8956 L17.0201,18.5016 L17.0201,18.5166 L17.0201,21.8426 C17.0201,22.1146 17.3051,22.3376 17.6541,22.3376 L18.0851,22.3376 C18.4331,22.3376 18.7191,22.1156 18.7191,21.8426 L18.7191,17.2366 L18.7191,17.2226 Z M3.6901,18.9966 L3.2601,18.9966 C2.9111,18.9966 2.6251,18.7746 2.6251,18.5016 L2.6251,13.8956 C2.6251,13.6236 2.9111,13.4016 3.2601,13.4016 L3.6901,13.4016 C4.0391,13.4016 4.3241,13.6236 4.3241,13.8956 L4.3241,18.5016 C4.3241,18.7746 4.0401,18.9966 3.6901,18.9966 L3.6901,18.9966 Z M10.4571,18.9966 L10.8871,18.9966 C11.2361,18.9966 11.5211,18.7746 11.5211,18.5016 L11.5211,6.8136 C11.5211,6.5426 11.2361,6.3196 10.8871,6.3196 L10.4571,6.3196 C10.1081,6.3196 9.8231,6.5426 9.8231,6.8136 L9.8231,18.5016 C9.8221,18.7746 10.1081,18.9966 10.4571,18.9966 L10.4571,18.9966 Z M24.8521,16.7426 L25.2821,16.7426 C25.6311,16.7426 25.9161,16.9636 25.9161,17.2366 L25.9161,28.9236 C25.9161,29.1966 25.6311,29.4176 25.2821,29.4176 L24.8521,29.4176 C24.5021,29.4176 24.2171,29.1966 24.2171,28.9236 L24.2171,17.2366 C24.2171,16.9636 24.5021,16.7426 24.8521,16.7426 L24.8521,16.7426 Z M8.9351,-0.0004 L35.7391,-0.0004 L35.7391,26.8046 C35.7391,31.7246 31.7251,35.7386 26.8041,35.7386 L0.0001,35.7386 L0.0001,8.9356 C0.0001,4.0146 4.0141,-0.0004 8.9351,-0.0004 L8.9351,-0.0004 Z" id="Fill-1"></path>
        </g>
    </g>
</svg>
