<svg xmlns="http://www.w3.org/2000/svg" xmlns:xlink="http://www.w3.org/1999/xlink" width="49" height="51" viewBox="0 0 49 51">
  <defs>
    <polygon id="intelligentassistant-a" points="48.944 .191 48.944 24.059 48.944 50.203 0 50.203 0 25.197 0 .191"/>
  </defs>
  <g fill="none" fill-rule="evenodd">
    <path fill-rule="nonzero" d="M18.3043115,36.6901172 L18.3043115,31.8251953 L13.6557377,28.6974609 L13.6557377,26.6901328 L13.6557377,26.1386953 L13.6557377,23.5894922 L18.3043115,20.4617578 L18.3043115,15.1880391 C18.9131967,14.8939922 19.3357213,14.2915547 19.3357213,13.5879141 C19.3357213,12.5973984 18.507541,11.7949453 17.4857705,11.7949453 C16.464,11.7949453 15.6358197,12.5973984 15.6358197,13.5879141 C15.6358197,14.1361641 15.8952787,14.6214609 16.2961148,14.9497734 L16.2961148,19.4058984 L11.647541,22.5328359 L11.647541,26.1386953 L11.647541,26.6901328 L11.647541,29.7541172 L16.2961148,32.8810547 L16.2961148,36.9283828 C15.8952787,37.2566953 15.6358197,37.7419922 15.6358197,38.2910391 C15.6358197,39.2807578 16.464,40.0840078 17.4857705,40.0840078 C18.507541,40.0840078 19.3357213,39.2807578 19.3357213,38.2910391 C19.3357213,37.5866016 18.9131967,36.9841641 18.3043115,36.6901172"/>
    <g transform="translate(0 .606)">
      <mask id="intelligentassistant-b" fill="#fff">
        <use xlink:href="#intelligentassistant-a"/>
      </mask>
      <path fill-rule="nonzero" d="M29.1654426,47.8780828 L25.6639508,45.5743172 L25.6639508,26.3624578 L27.5371967,26.3624578 C27.8721639,26.8238484 28.4224098,27.1266609 29.0481639,27.1266609 C30.0699344,27.1266609 30.8981148,26.3234109 30.8981148,25.3336922 C30.8981148,24.3431766 30.0699344,23.5407234 29.0481639,23.5407234 C28.3934918,23.5407234 27.8207541,23.8722234 27.4922131,24.3702703 L25.6639508,24.3702703 L25.6639508,20.6193797 L25.6639508,20.0671453 L25.6639508,4.82053594 L29.1654426,2.51677031 L40.0988689,8.45667656 L40.0988689,14.6683172 L38.3043443,16.0206141 C38.1685902,15.9903328 38.029623,15.9704109 37.8842295,15.9704109 C36.8632623,15.9704109 36.0342787,16.7728641 36.0342787,17.7633797 C36.0342787,18.7530984 36.8632623,19.5563484 37.8842295,19.5563484 C38.906,19.5563484 39.7341803,18.7530984 39.7341803,17.7633797 C39.7341803,17.6621766 39.7205246,17.5649578 39.7036557,17.4685359 L41.552,16.0748016 L46.936377,19.0782234 L46.936377,23.9718328 L45.0639344,23.9718328 C44.7345902,23.4737859 44.1626557,23.1422859 43.5071803,23.1422859 C42.4862131,23.1422859 41.6572295,23.9447391 41.6572295,24.9352547 C41.6572295,25.9249734 42.4862131,26.7282234 43.5071803,26.7282234 C44.1329344,26.7282234 44.6839836,26.4254109 45.0181475,25.9640203 L46.936377,25.9640203 L46.936377,31.3158328 L41.531918,34.3312078 L39.6964262,33.2641922 C39.7213279,33.1478484 39.7341803,33.0275203 39.7341803,32.9040047 C39.7341803,31.9134891 38.906,31.1110359 37.8842295,31.1110359 C36.8632623,31.1110359 36.0342787,31.9134891 36.0342787,32.9040047 C36.0342787,33.8937234 36.8632623,34.6969734 37.8842295,34.6969734 C37.9741967,34.6969734 38.0593443,34.6826297 38.1460984,34.6714734 L40.0988689,35.8070203 L40.0988689,41.9381766 L29.1654426,47.8780828 Z M23.280623,45.5743172 L19.7783279,47.8780828 L8.84570492,41.9381766 L8.84570492,35.7257391 L10.6394262,34.3734422 C10.7751803,34.4045203 10.9141475,34.4244422 11.059541,34.4244422 C12.0813115,34.4244422 12.9094918,33.6211922 12.9094918,32.6314734 C12.9094918,31.6409578 12.0813115,30.8385047 11.059541,30.8385047 C10.0377705,30.8385047 9.20959016,31.6409578 9.20959016,32.6314734 C9.20959016,32.7318797 9.22404918,32.8298953 9.24011475,32.9263172 L7.39257377,34.3192547 L2.00819672,31.3158328 L2.00819672,26.4222234 L3.88063934,26.4222234 C4.20918033,26.9202703 4.78191803,27.2525672 5.43659016,27.2525672 C6.45836066,27.2525672 7.28654098,26.4493172 7.28654098,25.4595984 C7.28654098,24.4690828 6.45836066,23.6666297 5.43659016,23.6666297 C4.81083607,23.6666297 4.26059016,23.9694422 3.92562295,24.4300359 L2.00819672,24.4300359 L2.00819672,19.0782234 L7.41265574,16.0636453 L9.24734426,17.1306609 C9.22244262,17.2470047 9.20959016,17.3673328 9.20959016,17.4908484 C9.20959016,18.4805672 10.0377705,19.2838172 11.059541,19.2838172 C12.0813115,19.2838172 12.9094918,18.4805672 12.9094918,17.4908484 C12.9094918,16.5003328 12.0813115,15.6978797 11.059541,15.6978797 C10.970377,15.6978797 10.8844262,15.7114266 10.7984754,15.7233797 L8.84570492,14.5878328 L8.84570492,8.45667656 L19.7783279,2.51677031 L23.280623,4.82053594 L23.280623,24.3041297 L21.4065738,24.3041297 C21.0724098,23.8435359 20.5213607,23.5407234 19.8956066,23.5407234 C18.8738361,23.5407234 18.0456557,24.3431766 18.0456557,25.3336922 C18.0456557,26.3234109 18.8738361,27.1266609 19.8956066,27.1266609 C20.551082,27.1266609 21.1230164,26.7943641 21.4515574,26.2963172 L23.280623,26.2963172 L23.280623,29.7746766 L23.280623,30.3277078 L23.280623,45.5743172 Z M42.1070656,14.0985516 L42.1070656,7.27650469 L29.0658361,0.191489063 L24.4718852,3.21403594 L19.8779344,0.191489063 L6.8375082,7.27650469 L6.8375082,14.0985516 L0,17.9131922 L0,19.0503328 L0,31.3437234 L0,32.4808641 L6.8375082,36.2955047 L6.8375082,43.1175516 L19.8779344,50.2033641 L24.4718852,47.1808172 L29.0658361,50.2033641 L42.1070656,43.1175516 L42.1070656,36.2955047 L48.9445738,32.4808641 L48.9445738,31.3437234 L48.9445738,19.0503328 L48.9445738,17.9131922 L42.1070656,14.0985516 Z" mask="url(#intelligentassistant-b)"/>
    </g>
    <path fill-rule="nonzero" d="M32.647977,36.9282234 L32.647977,32.4720984 L37.2965508,29.3451609 L37.2965508,25.7400984 L37.2965508,25.1886609 L37.2965508,22.1238797 L32.647977,18.9969422 L32.647977,14.9496141 C33.0488131,14.6213016 33.3082721,14.1360047 33.3082721,13.5877547 C33.3082721,12.5972391 32.4800918,11.7947859 31.4583213,11.7947859 C30.4365508,11.7947859 29.6083705,12.5972391 29.6083705,13.5877547 C29.6083705,14.2913953 30.0308951,14.8946297 30.6397803,15.1878797 L30.6397803,20.0535984 L35.2883541,23.1805359 L35.2883541,25.1886609 L35.2883541,25.7400984 L35.2883541,28.2893016 L30.6397803,31.4162391 L30.6397803,36.6907547 C30.0308951,36.9840047 29.6083705,37.5864422 29.6083705,38.2908797 C29.6083705,39.2805984 30.4365508,40.0838484 31.4583213,40.0838484 C32.4800918,40.0838484 33.3082721,39.2805984 33.3082721,38.2908797 C33.3082721,37.7418328 33.0488131,37.2573328 32.647977,36.9282234"/>
  </g>
</svg>
